# xmcd
#
# Track frame offsets: 
#        150
#        11363
#        25397
#        37062
#        50223
#        59863
#        71984
#        86008
#        99958
#        112221
#        122908
#        135416
#        147240
#        157954
#        172458
#        186147
#        195782
#        206914
#        220027
#        232267
#        243525
#        256332
#        267926
#        277605
#        290312
#        301632
#        316628
#        342212
#
# Disc length: 4773 seconds
#
# Revision: 0
# Processed by: cddbd v1.5.2PL0 Copyright (c) Steve Scherf et al.
# Submitted via: ExactAudioCopy v0.95b3
#
DISCID=a712a31c
DTITLE=Jay and The Techniques  - Baby Make Your Own Sweet Music  FLAC
DYEAR=1900
DGENRE=
TTITLE0=Apples, Peaches, Pumpkin Pie
TTITLE1=Keep The Ball Rollin'
TTITLE2=Strawberry Shortcake
TTITLE3=Still (In Love With You)
TTITLE4=Ain't No Soul (In These Old Shoes)
TTITLE5=Contact
TTITLE6=The Power Of Love
TTITLE7=Lovin' For Money
TTITLE8=Baby Make Your Own Sweet Music
TTITLE9=Help Yourself (To All Of My Lovin')
TTITLE10=The Singles Game
TTITLE11=Hey Diddle Diddle
TTITLE12=If I Should Lose You
TTITLE13=When Love Slips Away
TTITLE14=You Gave Me Somebody To Love
TTITLE15=Don't Let It Go To Your Head
TTITLE16=Girl I Want To Marry You
TTITLE17=I Want You So Bad (I Can Taste It)
TTITLE18=I'm Gonna Make You Love Me
TTITLE19=Locked In (Your Love)
TTITLE20=Mexico
TTITLE21=Hurtin' Myself
TTITLE22=Are You Ready For This
TTITLE23=Dancin' Mood
TTITLE24=Robot Man
TTITLE25=I Feel Love Coming On
TTITLE26=Number Onederful
TTITLE27=Don't Ask Me To Forget
EXTD=
EXTT0=
EXTT1=
EXTT2=
EXTT3=
EXTT4=
EXTT5=
EXTT6=
EXTT7=
EXTT8=
EXTT9=
EXTT10=
EXTT11=
EXTT12=
EXTT13=
EXTT14=
EXTT15=
EXTT16=
EXTT17=
EXTT18=
EXTT19=
EXTT20=
EXTT21=
EXTT22=
EXTT23=
EXTT24=
EXTT25=
EXTT26=
EXTT27=
PLAYORDER=
